<svg width="300" height="300" viewBox="0 0 300 300" fill="none" xmlns="http://www.w3.org/2000/svg">
<path d="M248.438 112.5V187.5C248.438 213.607 238.066 238.645 219.606 257.106C201.145 275.566 176.107 285.938 150 285.938C123.893 285.938 98.8548 275.566 80.3942 257.106C61.9336 238.645 51.5625 213.607 51.5625 187.5V112.5C51.5625 111.416 51.5859 110.332 51.6387 109.26V109.254C52.4736 91.1874 60.2382 74.1373 73.3186 61.6473C86.3989 49.1572 103.789 42.1878 121.875 42.1875H178.125C196.151 42.1871 213.489 49.1104 226.557 61.5272C239.624 73.9439 247.424 90.9055 248.344 108.908C248.408 110.098 248.438 111.299 248.438 112.5Z" fill="#FDC8A2"/>
<path d="M51.5625 121.875V84.375C51.5625 73.1862 56.0072 62.4556 63.9189 54.5439C71.8306 46.6322 82.5612 42.1875 93.75 42.1875V79.6875L51.5625 121.875Z" fill="#804A32"/>
<path d="M248.438 121.875L215.625 79.6875H84.375C71.943 79.6875 60.0201 74.7489 51.2294 65.9581C42.4386 57.1674 37.5 45.2445 37.5 32.8125V14.0625H178.125C196.773 14.0625 214.657 21.4704 227.843 34.6566C241.03 47.8427 248.438 65.727 248.438 84.375V121.875Z" fill="#91563A"/>
<path d="M46.875 121.875H51.5625V178.125H46.875C39.4158 178.125 32.2621 175.162 26.9876 169.887C21.7132 164.613 18.75 157.459 18.75 150C18.75 142.541 21.7132 135.387 26.9876 130.113C32.2621 124.838 39.4158 121.875 46.875 121.875Z" fill="#FDB683"/>
<path d="M253.125 178.125H248.438V121.875H253.125C260.584 121.875 267.738 124.838 273.012 130.113C278.287 135.387 281.25 142.541 281.25 150C281.25 157.459 278.287 164.613 273.012 169.887C267.738 175.162 260.584 178.125 253.125 178.125Z" fill="#FDB683"/>
<path d="M98.4375 164.062C106.204 164.062 112.5 157.767 112.5 150C112.5 142.233 106.204 135.938 98.4375 135.938C90.671 135.938 84.375 142.233 84.375 150C84.375 157.767 90.671 164.062 98.4375 164.062Z" fill="#91563A"/>
<path d="M201.562 164.062C209.329 164.062 215.625 157.767 215.625 150C215.625 142.233 209.329 135.938 201.562 135.938C193.796 135.938 187.5 142.233 187.5 150C187.5 157.767 193.796 164.062 201.562 164.062Z" fill="#91563A"/>
<path d="M130.214 188.464L136.067 158.373L145.273 160.163L139.421 190.255L130.214 188.464Z" fill="#FDB683"/>
<path d="M119.463 125.894C113.115 122.076 105.846 120.059 98.4375 120.059C91.029 120.059 83.7604 122.076 77.4117 125.894L72.5883 117.855C80.3933 113.161 89.3294 110.68 98.4375 110.68C107.546 110.68 116.482 113.161 124.287 117.855L119.463 125.894Z" fill="#91563A"/>
<path d="M222.588 125.894C216.24 122.076 208.971 120.059 201.562 120.059C194.154 120.059 186.885 122.076 180.537 125.894L175.713 117.855C183.518 113.161 192.454 110.68 201.562 110.68C210.671 110.68 219.607 113.161 227.412 117.855L222.588 125.894Z" fill="#91563A"/>
<path d="M89.7246 208.277L80.9766 211.646L51.5625 135.17V112.5C51.5625 111.416 51.5859 110.332 51.6387 109.26L89.7246 208.277Z" fill="#85CCD5"/>
<path d="M248.438 112.5V135.029L220.201 209.285L211.441 205.951L248.344 108.908C248.408 110.098 248.438 111.299 248.438 112.5Z" fill="#85CCD5"/>
<path d="M225 182.812V251.256C219.92 257.232 214.145 262.58 207.797 267.188H92.2031C85.8555 262.58 80.0803 257.232 75 251.256V182.812H225Z" fill="#85CCD5"/>
<path d="M75 206.25H225V215.625H75V206.25Z" fill="#7CC1C9"/>
<path d="M75 234.375H225V243.75H75V234.375Z" fill="#7CC1C9"/>
</svg>
